<svg width="24" height="24" viewBox="0 0 24 24" fill="none" xmlns="http://www.w3.org/2000/svg">
<path d="M21.6707 14.3L21.2707 19.3C21.1207 20.83 21.0007 22 18.2907 22H5.71074C3.00074 22 2.88074 20.83 2.73074 19.3L2.33074 14.3C2.25074 13.47 2.51074 12.7 2.98074 12.11C2.99074 12.1 2.99074 12.1 3.00074 12.09C3.55074 11.42 4.38074 11 5.31074 11H18.6907C19.6207 11 20.4407 11.42 20.9807 12.07C20.9907 12.08 21.0007 12.09 21.0007 12.1C21.4907 12.69 21.7607 13.46 21.6707 14.3Z" stroke="#333F4E" stroke-width="1.5" stroke-miterlimit="10"/>
<path d="M3.5 11.4293V6.2793C3.5 2.8793 4.35 2.0293 7.75 2.0293H9.02C10.29 2.0293 10.58 2.4093 11.06 3.0493L12.33 4.7493C12.65 5.1693 12.84 5.4293 13.69 5.4293H16.24C19.64 5.4293 20.49 6.2793 20.49 9.6793V11.4693" stroke="#333F4E" stroke-width="1.5" stroke-miterlimit="10" stroke-linecap="round" stroke-linejoin="round"/>
<path d="M9.42969 17H14.5697" stroke="#333F4E" stroke-width="1.5" stroke-miterlimit="10" stroke-linecap="round" stroke-linejoin="round"/>
</svg>
