<svg width="24" height="24" viewBox="0 0 24 24" fill="none" xmlns="http://www.w3.org/2000/svg">
<path d="M22.0003 11.9999C22.0003 14.6521 20.9467 17.1956 19.0713 19.071C17.1959 20.9464 14.6523 22 12.0001 22C9.34793 22 6.80436 20.9464 4.92897 19.071C3.05358 17.1956 2 14.6521 2 11.9999C2 11.8104 2.07526 11.6287 2.20921 11.4948C2.34317 11.3608 2.52485 11.2856 2.7143 11.2856C2.90374 11.2856 3.08542 11.3608 3.21938 11.4948C3.35333 11.6287 3.42859 11.8104 3.42859 11.9999C3.42565 13.9128 4.06173 15.7719 5.23585 17.2821C6.40997 18.7922 8.05488 19.867 9.90947 20.3357C11.7641 20.8045 13.7221 20.6403 15.4728 19.8694C17.2234 19.0984 18.6664 17.7648 19.5728 16.0802C20.4791 14.3956 20.7967 12.4566 20.4754 10.5709C20.154 8.68513 19.212 6.96077 17.7988 5.67147C16.3857 4.38217 14.5824 3.6018 12.6752 3.45423C10.768 3.30666 8.86614 3.80034 7.2715 4.85691H7.71436C7.90381 4.85691 8.08549 4.93217 8.21945 5.06613C8.3534 5.20008 8.42866 5.38177 8.42866 5.57121C8.42866 5.76065 8.3534 5.94234 8.21945 6.07629C8.08549 6.21025 7.90381 6.2855 7.71436 6.2855H5.57148C5.38203 6.2855 5.20035 6.21025 5.06639 6.07629C4.93244 5.94234 4.85718 5.76065 4.85718 5.57121V3.42832C4.85718 3.23888 4.93244 3.0572 5.06639 2.92324C5.20035 2.78928 5.38203 2.71403 5.57148 2.71403C5.76092 2.71403 5.9426 2.78928 6.07656 2.92324C6.21052 3.0572 6.28577 3.23888 6.28577 3.42832V3.79547C7.78494 2.75067 9.54177 2.13672 11.3654 2.02031C13.189 1.9039 15.0096 2.2895 16.6295 3.13521C18.2493 3.98091 19.6064 5.25437 20.5533 6.81723C21.5002 8.38008 22.0006 10.1725 22.0003 11.9999ZM14.5395 12.8342L12.7144 11.6177V8.42839C12.7144 8.23895 12.6392 8.05726 12.5052 7.92331C12.3713 7.78935 12.1896 7.71409 12.0001 7.71409C11.8107 7.71409 11.629 7.78935 11.4951 7.92331C11.3611 8.05726 11.2858 8.23895 11.2858 8.42839V11.9999C11.2858 12.1174 11.3148 12.2332 11.3703 12.3369C11.4257 12.4405 11.5059 12.5289 11.6037 12.5942L13.7466 14.0228C13.9042 14.1279 14.0971 14.1661 14.2829 14.129C14.4687 14.0919 14.6322 13.9825 14.7373 13.8249C14.8425 13.6673 14.8807 13.4743 14.8436 13.2885C14.8065 13.1028 14.6971 12.9393 14.5395 12.8342ZM18.4288 11.9999C18.4288 10.7284 18.0518 9.48548 17.3454 8.4283C16.639 7.37111 15.635 6.54713 14.4603 6.06056C13.2856 5.57399 11.993 5.44668 10.746 5.69473C9.49893 5.94278 8.35345 6.55505 7.45439 7.45412C6.55532 8.35318 5.94305 9.49866 5.695 10.7457C5.44695 11.9927 5.57426 13.2853 6.06083 14.46C6.5474 15.6347 7.37138 16.6387 8.42856 17.3451C9.48575 18.0515 10.7287 18.4285 12.0001 18.4285C13.7045 18.4266 15.3386 17.7487 16.5438 16.5435C17.749 15.3383 18.4269 13.7043 18.4288 11.9999ZM17.0002 11.9999C17.0002 12.9888 16.707 13.9555 16.1575 14.7778C15.6081 15.6 14.8272 16.2409 13.9136 16.6193C12.9999 16.9978 11.9946 17.0968 11.0247 16.9039C10.0548 16.7109 9.16382 16.2347 8.46455 15.5354C7.76528 14.8362 7.28907 13.9452 7.09614 12.9753C6.90321 12.0054 7.00223 11.0001 7.38067 10.0864C7.75912 9.17278 8.39999 8.39188 9.22225 7.84246C10.0445 7.29305 11.0112 6.9998 12.0001 6.9998C13.3258 7.00131 14.5967 7.52859 15.534 8.46596C16.4714 9.40332 16.9987 10.6742 17.0002 11.9999Z" fill="#333F4E"/>
</svg>
