<svg width="24" height="24" viewBox="0 0 24 24" fill="none" xmlns="http://www.w3.org/2000/svg">
<path d="M11.9008 10.9C11.2408 10.9 10.8008 10.46 10.8008 9.8V2.1C10.8008 1.44 11.2408 1 11.9008 1C12.5608 1 13.0008 1.44 13.0008 2.1V9.8C13.0008 10.46 12.5608 10.9 11.9008 10.9Z" fill="#333F4E"/>
<path d="M11.9 23.0003C6.4 23.0003 2 18.6003 2 13.1003C2 9.58028 3.87 6.28028 6.95 4.52028C7.5 4.19028 8.16 4.41028 8.49 4.96028C8.82 5.40028 8.6 6.06028 8.05 6.39028C5.74 7.82028 4.2 10.3503 4.2 13.1003C4.2 17.3903 7.61 20.8003 11.9 20.8003C16.19 20.8003 19.6 17.3903 19.6 13.1003C19.6 10.3503 18.06 7.82028 15.75 6.39028C15.2 6.06028 14.98 5.40028 15.31 4.96028C15.64 4.41028 16.3 4.30028 16.85 4.52028C19.93 6.28028 21.8 9.58028 21.8 13.1003C21.8 18.6003 17.4 23.0003 11.9 23.0003Z" fill="#333F4E"/>
</svg>
