<svg width="24" height="24" viewBox="0 0 24 24" fill="none" xmlns="http://www.w3.org/2000/svg">
<path fill-rule="evenodd" clip-rule="evenodd" d="M13.3333 3.66602C8.73096 3.66602 5 7.39698 5 11.9993C5 12.5516 4.55229 12.9993 4 12.9993C3.44772 12.9993 3 12.5516 3 11.9993C3 6.2924 7.6264 1.66602 13.3333 1.66602C19.0402 1.66602 23.6666 6.2924 23.6666 11.9993C23.6666 13.5824 23.31 15.0848 22.6717 16.4284C22.4348 16.9273 21.8382 17.1396 21.3394 16.9025C20.8405 16.6656 20.6282 16.0691 20.8652 15.5703C21.3788 14.4892 21.6666 13.2793 21.6666 11.9993C21.6666 7.39698 17.9357 3.66602 13.3333 3.66602ZM4.81723 15.9529C5.29028 15.6679 5.90483 15.8203 6.18987 16.2933C7.64964 18.716 10.3032 20.3327 13.3333 20.3327C14.6133 20.3327 15.8232 20.0448 16.9042 19.5312C17.1522 19.4135 17.3934 19.2837 17.6273 19.1428C18.1004 18.8577 18.7149 19.0101 19 19.4832C19.285 19.9563 19.1326 20.5708 18.6596 20.8559C18.3696 21.0307 18.0702 21.1916 17.7624 21.3377C16.4189 21.976 14.9164 22.3327 13.3333 22.3327C9.57329 22.3327 6.28341 20.3237 4.47681 17.3256C4.19177 16.8525 4.34419 16.238 4.81723 15.9529Z" fill="#333F4E"/>
<path fill-rule="evenodd" clip-rule="evenodd" d="M12.668 7C13.2203 7 13.6679 7.44772 13.6679 8V12.3333H18.0013C18.5535 12.3333 19.0013 12.7811 19.0013 13.3333C19.0013 13.8856 18.5535 14.3333 18.0013 14.3333H12.668C12.1157 14.3333 11.668 13.8856 11.668 13.3333V8C11.668 7.44772 12.1157 7 12.668 7Z" fill="#333F4E"/>
<path fill-rule="evenodd" clip-rule="evenodd" d="M0.779391 7.16805C1.23892 6.86171 1.85978 6.98588 2.16614 7.4454L4.2781 10.6134L7.44605 8.50139C7.90558 8.19504 8.52645 8.31921 8.83281 8.77873C9.13916 9.23827 9.01499 9.85913 8.55545 10.1655L4.55545 12.8322C4.09593 13.1385 3.47506 13.0143 3.1687 12.5548L0.50204 8.5548C0.195688 8.09528 0.319861 7.47441 0.779391 7.16805Z" fill="#333F4E"/>
</svg>
