<svg width="24" height="24" viewBox="0 0 24 24" fill="none" xmlns="http://www.w3.org/2000/svg">
<g clip-path="url(#clip0_408_18806)">
<path d="M18.5788 14.9436C17.1793 14.9436 15.9265 15.582 15.0952 16.5827L9.68777 13.5126C9.86043 13.0271 9.94857 12.5156 9.94835 12.0003C9.94856 11.4851 9.86042 10.9736 9.68777 10.4882L15.0948 7.41729C15.926 8.41831 17.179 9.05693 18.5786 9.05693C21.0749 9.05693 23.1059 7.02521 23.1059 4.52778C23.1061 2.03109 21.0751 0 18.5788 0C16.0821 0 14.0509 2.03109 14.0509 4.52767C14.0509 5.05792 14.1432 5.56683 14.3115 6.04014L8.90413 9.11112C8.07295 8.11063 6.82022 7.47243 5.4211 7.47243C2.92409 7.47243 0.892578 9.50352 0.892578 12.0002C0.892578 14.4968 2.92409 16.5279 5.4211 16.5279C6.82022 16.5279 8.07285 15.8897 8.90402 14.8893L14.3115 17.9595C14.1387 18.4452 14.0505 18.9568 14.0508 19.4722C14.0508 21.9688 16.082 23.9999 18.5787 23.9999C21.075 23.9999 23.106 21.9687 23.106 19.4722C23.1061 16.9752 21.0751 14.9436 18.5788 14.9436ZM18.5788 1.5844C20.2015 1.5844 21.5217 2.90473 21.5217 4.52767C21.5217 6.15147 20.2015 7.47243 18.5788 7.47243C16.9557 7.47243 15.6353 6.15147 15.6353 4.52767C15.6353 2.90473 16.9557 1.5844 18.5788 1.5844ZM5.4212 14.9436C3.79783 14.9436 2.47708 13.6232 2.47708 12.0003C2.47708 10.3773 3.79783 9.05693 5.4212 9.05693C7.04394 9.05693 8.36406 10.3773 8.36406 12.0003C8.36406 13.6232 7.04384 14.9436 5.4212 14.9436ZM18.5788 22.4156C16.9557 22.4156 15.6353 21.0952 15.6353 19.4723C15.6353 17.8488 16.9557 16.528 18.5788 16.528C20.2015 16.528 21.5217 17.8488 21.5217 19.4723C21.5217 21.0952 20.2015 22.4156 18.5788 22.4156Z" fill="#333F4E"/>
</g>
<defs>
<clipPath id="clip0_408_18806">
<rect width="24" height="24" fill="white"/>
</clipPath>
</defs>
</svg>
