<svg width="24" height="24" viewBox="0 0 24 24" fill="none" xmlns="http://www.w3.org/2000/svg">
<g clip-path="url(#clip0_429_12775)">
<path d="M24 11.9998C24 5.37233 18.6274 -0.000244141 12 -0.000244141C5.37258 -0.000244141 0 5.37233 0 11.9998C0 17.9893 4.38823 22.9537 10.125 23.854V15.4685H7.07812V11.9998H10.125V9.35601C10.125 6.34851 11.9165 4.68726 14.6576 4.68726C15.9705 4.68726 17.3438 4.92163 17.3438 4.92163V7.87476H15.8306C14.3399 7.87476 13.875 8.79976 13.875 9.74875V11.9998H17.2031L16.6711 15.4685H13.875V23.854C19.6118 22.9537 24 17.9893 24 11.9998Z" fill="#1877F2"/>
<path d="M16.6711 15.4685L17.2031 11.9998H13.875V9.74875C13.875 8.79976 14.3399 7.87476 15.8306 7.87476H17.3438V4.92163C17.3438 4.92163 15.9705 4.68726 14.6576 4.68726C11.9165 4.68726 10.125 6.34851 10.125 9.35601V11.9998H7.07812V15.4685H10.125V23.854C10.7359 23.9498 11.3621 23.9998 12 23.9998C12.6379 23.9998 13.2641 23.9498 13.875 23.854V15.4685H16.6711Z" fill="white"/>
</g>
<defs>
<clipPath id="clip0_429_12775">
<rect width="24" height="24" fill="white"/>
</clipPath>
</defs>
</svg>
