<svg width="24" height="24" viewBox="0 0 24 24" fill="none" xmlns="http://www.w3.org/2000/svg">
<g clip-path="url(#clip0_429_12774)">
<path d="M23.3144 12.2677C23.3144 11.432 23.2394 10.6284 23.1001 9.85697H12.0001V14.4159H18.3429C18.0697 15.8891 17.2394 17.1373 15.9911 17.973V20.9302H19.8001C22.0286 18.8784 23.3144 15.857 23.3144 12.2677Z" fill="#4285F4"/>
<path d="M12.0004 23.7854C15.1825 23.7854 17.8501 22.7302 19.8001 20.9302L15.9911 17.973C14.9358 18.6802 13.5861 19.0979 12.0004 19.0979C8.93076 19.0979 6.33255 17.0247 5.40576 14.2389H1.46826V17.2925C3.40755 21.1443 7.39326 23.7854 12.0004 23.7854Z" fill="#34A853"/>
<path d="M5.40576 14.2389C5.17005 13.5318 5.03578 12.7768 5.03578 12C5.03578 11.2232 5.16971 10.4678 5.40543 9.76071V6.70714H1.46793C0.642927 8.34948 0.213628 10.1621 0.214356 12C0.214356 13.9018 0.670047 15.7014 1.46826 17.2925L5.40576 14.2389Z" fill="#FBBC05"/>
<path d="M12.0004 4.90161C13.7308 4.90161 15.2843 5.49625 16.5058 6.66411L19.8861 3.28375C17.845 1.38197 15.1772 0.214111 12.0004 0.214111C7.39326 0.214111 3.40721 2.85535 1.46793 6.70714L5.40543 9.76071C6.33221 6.97499 8.93076 4.90161 12.0004 4.90161Z" fill="#EA4335"/>
</g>
<defs>
<clipPath id="clip0_429_12774">
<rect width="24" height="24" fill="white"/>
</clipPath>
</defs>
</svg>
