<svg width="24" height="24" viewBox="0 0 24 24" fill="none" xmlns="http://www.w3.org/2000/svg">
<path d="M21.3823 6.82799C21.3968 7.03839 21.3968 7.2488 21.3968 7.46115C21.3968 13.9314 16.4806 21.3936 7.49129 21.3936V21.3897C4.83581 21.3936 2.23548 20.6315 0 19.1945C0.386129 19.241 0.774194 19.2643 1.16323 19.2653C3.36387 19.2672 5.50161 18.5274 7.2329 17.1651C5.14161 17.1253 3.30774 15.7591 2.6671 13.7646C3.39968 13.9062 4.15452 13.8771 4.87355 13.6803C2.59355 13.2187 0.953226 11.2116 0.953226 8.88067C0.953226 8.85934 0.953226 8.83897 0.953226 8.81861C1.63258 9.19773 2.39323 9.40814 3.17129 9.43141C1.02387 7.99347 0.361935 5.13115 1.65871 2.89327C4.14 5.95242 7.80097 7.81215 11.731 8.00898C11.3371 6.30827 11.8752 4.52611 13.1448 3.33057C15.1132 1.47666 18.209 1.57168 20.0594 3.54292C21.1539 3.32669 22.2029 2.9243 23.1629 2.35417C22.7981 3.48765 22.0345 4.45048 21.0145 5.06231C21.9832 4.9479 22.9297 4.68804 23.821 4.29146C23.1648 5.2766 22.3384 6.13471 21.3823 6.82799Z" fill="#1D9BF0"/>
</svg>
