<svg width="24" height="24" viewBox="0 0 24 24" fill="none" xmlns="http://www.w3.org/2000/svg">
<path d="M14.6738 12.8254C14.6738 11.348 13.4762 10.1504 11.9988 10.1504C10.5215 10.1504 9.32383 11.348 9.32383 12.8254C9.32383 14.3028 10.5215 15.5004 11.9988 15.5004C13.4762 15.5004 14.6738 14.3028 14.6738 12.8254Z" fill="#333F4E"/>
<path fill-rule="evenodd" clip-rule="evenodd" d="M5.3521 6.225C2.9485 6.225 1 8.1735 1 10.5771V16.125C1 19.1626 3.46243 21.625 6.5 21.625H17.5C20.5376 21.625 23 19.1626 23 16.125V10.5771C23 8.1735 21.0515 6.225 18.6479 6.225C17.9515 6.225 17.3221 5.80999 17.0478 5.16991L16.7072 4.37507C16.1872 3.16171 14.9941 2.375 13.674 2.375H10.326C9.00591 2.375 7.81284 3.16171 7.29283 4.37507L6.95218 5.16991C6.67786 5.80999 6.04848 6.225 5.3521 6.225ZM11.9988 8.90039C14.1665 8.90039 15.9238 10.6577 15.9238 12.8254C15.9238 14.9931 14.1665 16.7504 11.9988 16.7504C9.83111 16.7504 8.07383 14.9931 8.07383 12.8254C8.07383 10.6577 9.83111 8.90039 11.9988 8.90039Z" fill="#333F4E"/>
</svg>
