<svg width="24" height="24" viewBox="0 0 24 24" fill="none" xmlns="http://www.w3.org/2000/svg">
<path d="M19.0744 4.92582C15.1724 1.02473 8.82684 1.02473 4.92493 4.92582C1.0247 8.82691 1.0247 15.1742 4.92493 19.0752C6.87588 21.0254 9.43796 22 12.0001 22C14.5622 22 17.1234 21.0253 19.0744 19.0752C22.9754 15.1742 22.9754 8.82691 19.0744 4.92582ZM16.1262 14.9482C16.4522 15.2742 16.4522 15.8011 16.1262 16.1271C16.0489 16.2047 15.957 16.2661 15.8559 16.3081C15.7547 16.35 15.6463 16.3715 15.5368 16.3714C15.4273 16.3715 15.3188 16.35 15.2177 16.3081C15.1165 16.2661 15.0246 16.2046 14.9473 16.1271L12 13.179L9.05359 16.1263C8.89723 16.2826 8.68522 16.3705 8.46412 16.3706C8.35462 16.3707 8.24618 16.3491 8.14502 16.3072C8.04387 16.2653 7.95199 16.2038 7.87466 16.1263C7.54868 15.8003 7.54868 15.2725 7.87466 14.9474L10.8211 12.0001L7.87383 9.05284C7.54785 8.72686 7.54785 8.1991 7.87383 7.87394C8.19899 7.54796 8.72675 7.54796 9.05273 7.87394L12 10.8212L14.9473 7.87394C15.2732 7.54796 15.8002 7.54796 16.1262 7.87394C16.4521 8.1991 16.4521 8.72686 16.1262 9.05284L13.1789 12.0001L16.1262 14.9482Z" fill="#333F4E"/>
</svg>
