<svg width="24" height="24" viewBox="0 0 24 24" fill="none" xmlns="http://www.w3.org/2000/svg">
<path d="M23.0003 11.9999C23.0003 14.9173 21.8414 17.7152 19.7784 19.7781C17.7155 21.8411 14.9176 23 12.0001 23C9.08273 23 6.2848 21.8411 4.22187 19.7781C2.15894 17.7152 1 14.9173 1 11.9999C1 11.7915 1.08278 11.5916 1.23013 11.4443C1.37749 11.2969 1.57734 11.2141 1.78572 11.2141C1.99411 11.2141 2.19396 11.2969 2.34132 11.4443C2.48867 11.5916 2.57145 11.7915 2.57145 11.9999C2.56822 14.1041 3.2679 16.1491 4.55944 17.8103C5.85097 19.4715 7.66036 20.6537 9.70042 21.1693C11.7405 21.6849 13.8943 21.5044 15.82 20.6563C17.7458 19.8083 19.3331 18.3413 20.33 16.4882C21.327 14.6352 21.6764 12.5022 21.3229 10.4279C20.9694 8.35364 19.9332 6.45684 18.3787 5.03861C16.8243 3.62038 14.8407 2.76198 12.7427 2.59965C10.6448 2.43733 8.55276 2.98037 6.79865 4.14261H7.2858C7.49419 4.14261 7.69404 4.22539 7.84139 4.37274C7.98874 4.52009 8.07152 4.71994 8.07152 4.92833C8.07152 5.13672 7.98874 5.33657 7.84139 5.48392C7.69404 5.63127 7.49419 5.71405 7.2858 5.71405H4.92862C4.72024 5.71405 4.52038 5.63127 4.37303 5.48392C4.22568 5.33657 4.1429 5.13672 4.1429 4.92833V2.57116C4.1429 2.36277 4.22568 2.16292 4.37303 2.01556C4.52038 1.86821 4.72024 1.78543 4.92862 1.78543C5.13701 1.78543 5.33686 1.86821 5.48422 2.01556C5.63157 2.16292 5.71435 2.36277 5.71435 2.57116V2.97502C7.36343 1.82574 9.29594 1.15039 11.3019 1.02234C13.3079 0.894295 15.3106 1.31845 17.0924 2.24873C18.8742 3.179 20.367 4.57981 21.4086 6.29895C22.4502 8.01809 23.0007 9.9898 23.0003 11.9999ZM19.0717 11.9999C19.0717 13.3985 18.6569 14.7657 17.8799 15.9286C17.1029 17.0915 15.9985 17.9979 14.7063 18.5331C13.4142 19.0683 11.9923 19.2084 10.6206 18.9355C9.24882 18.6626 7.9888 17.9891 6.99983 17.0002C6.01085 16.0112 5.33736 14.7512 5.0645 13.3794C4.79165 12.0077 4.93168 10.5858 5.46691 9.2937C6.00214 8.00155 6.90851 6.89712 8.07142 6.1201C9.23433 5.34307 10.6015 4.92833 12.0001 4.92833C13.875 4.93041 15.6725 5.67611 16.9982 7.00183C18.3239 8.32755 19.0696 10.125 19.0717 11.9999ZM14.7934 12.9176L12.7859 11.5795V8.07123C12.7859 7.86284 12.7031 7.66299 12.5557 7.51564C12.4084 7.36829 12.2085 7.2855 12.0001 7.2855C11.7918 7.2855 11.5919 7.36829 11.4446 7.51564C11.2972 7.66299 11.2144 7.86284 11.2144 8.07123V11.9999C11.2144 12.1292 11.2463 12.2565 11.3073 12.3705C11.3683 12.4846 11.4565 12.5818 11.5641 12.6536L13.9212 14.225C14.0946 14.3407 14.3068 14.3827 14.5112 14.3419C14.7156 14.3011 14.8954 14.1808 15.011 14.0074C15.1267 13.834 15.1687 13.6218 15.1279 13.4174C15.0871 13.213 14.9668 13.0332 14.7934 12.9176Z" fill="#333F4E"/>
</svg>
