<svg width="16" height="16" viewBox="0 0 16 16" fill="none" xmlns="http://www.w3.org/2000/svg">
<path d="M15.8805 7.68734C15.7377 7.52803 12.3026 3.78125 8.00001 3.78125C3.69745 3.78125 0.262328 7.52803 0.119484 7.68734C-0.0398281 7.86541 -0.0398281 8.13459 0.119484 8.31266C0.262328 8.47197 3.69751 12.2188 8.00001 12.2188C12.3025 12.2188 15.7377 8.47197 15.8805 8.31266C16.0398 8.13459 16.0398 7.86541 15.8805 7.68734ZM8.00001 11.2812C6.19092 11.2812 4.71876 9.80909 4.71876 8C4.71876 6.19091 6.19092 4.71875 8.00001 4.71875C9.8091 4.71875 11.2813 6.19091 11.2813 8C11.2813 9.80909 9.8091 11.2812 8.00001 11.2812Z" fill="#A3B2C7"/>
<path d="M8.46875 7.0625C8.46875 6.59094 8.70284 6.17609 9.05897 5.92094C8.73941 5.75734 8.38297 5.65625 8 5.65625C6.70772 5.65625 5.65625 6.70772 5.65625 8C5.65625 9.29228 6.70772 10.3438 8 10.3438C9.157 10.3438 10.1146 9.49894 10.3038 8.39506C9.35988 8.69897 8.46875 7.98506 8.46875 7.0625Z" fill="#A3B2C7"/>
</svg>
