<svg width="24" height="24" viewBox="0 0 24 24" fill="none" xmlns="http://www.w3.org/2000/svg">
<path d="M17.4999 22.9999H4.66655C4.08361 22.9981 3.52504 22.7658 3.11284 22.3536C2.70064 21.9414 2.46829 21.3828 2.46655 20.7999C2.46747 19.1119 2.91676 17.4545 3.76845 15.9973C4.62015 14.54 5.84369 13.3351 7.31389 12.5059C8.62907 13.6023 10.2876 14.2019 11.9999 14.1999C13.2228 14.2022 14.4263 13.8944 15.4979 13.3052C15.3652 13.5846 15.2975 13.8905 15.2999 14.1999V15.2999H14.1999C13.6164 15.2999 13.0568 15.5316 12.6443 15.9442C12.2317 16.3568 11.9999 16.9164 11.9999 17.4999C11.9999 18.0833 12.2317 18.6429 12.6443 19.0555C13.0568 19.4681 13.6164 19.6999 14.1999 19.6999H15.2999V20.7999C15.3016 21.3828 15.534 21.9414 15.9462 22.3536C16.3584 22.7658 16.9169 22.9981 17.4999 22.9999Z" fill="#333F4E"/>
<path d="M11.9992 12.7333C15.2393 12.7333 17.8659 10.1067 17.8659 6.86667C17.8659 3.6266 15.2393 1 11.9992 1C8.75916 1 6.13257 3.6266 6.13257 6.86667C6.13257 10.1067 8.75916 12.7333 11.9992 12.7333Z" fill="#333F4E"/>
<path d="M20.7999 16.7668H18.2332V14.2001C18.2332 14.0056 18.156 13.8191 18.0184 13.6816C17.8809 13.5441 17.6944 13.4668 17.4999 13.4668C17.3054 13.4668 17.1189 13.5441 16.9813 13.6816C16.8438 13.8191 16.7666 14.0056 16.7666 14.2001V16.7668H14.1999C14.0054 16.7668 13.8189 16.8441 13.6813 16.9816C13.5438 17.1191 13.4666 17.3056 13.4666 17.5001C13.4666 17.6946 13.5438 17.8811 13.6813 18.0187C13.8189 18.1562 14.0054 18.2335 14.1999 18.2335H16.7666V20.8001C16.7666 20.9946 16.8438 21.1811 16.9813 21.3187C17.1189 21.4562 17.3054 21.5335 17.4999 21.5335C17.6944 21.5335 17.8809 21.4562 18.0184 21.3187C18.156 21.1811 18.2332 20.9946 18.2332 20.8001V18.2335H20.7999C20.9944 18.2335 21.1809 18.1562 21.3184 18.0187C21.456 17.8811 21.5332 17.6946 21.5332 17.5001C21.5332 17.3056 21.456 17.1191 21.3184 16.9816C21.1809 16.8441 20.9944 16.7668 20.7999 16.7668Z" fill="#333F4E"/>
</svg>
