<svg width="24" height="24" viewBox="0 0 24 24" fill="none" xmlns="http://www.w3.org/2000/svg">
<path d="M22.4647 13.484C22.2396 13.4277 22.0145 13.484 21.8176 13.6247C21.0862 14.2436 20.2422 14.7499 19.3139 15.0875C18.4418 15.4251 17.4853 15.5939 16.4726 15.5939C14.1939 15.5939 12.1121 14.6655 10.6211 13.1746C9.13013 11.6836 8.20177 9.6018 8.20177 7.32311C8.20177 6.36663 8.37056 5.43827 8.65188 4.59431C8.96134 3.69409 9.41145 2.87827 10.0022 2.17497C10.2554 1.86552 10.1991 1.41541 9.88969 1.16222C9.69277 1.02156 9.46771 0.965297 9.24265 1.02156C6.85144 1.66859 4.76968 3.10332 3.27869 5.01629C1.84396 6.90113 1 9.23608 1 11.768C1 14.8343 2.2378 17.6194 4.2633 19.6449C6.2888 21.6704 9.04573 22.9082 12.1402 22.9082C14.7284 22.9082 17.1196 22.008 19.0326 20.517C20.9737 18.9979 22.3803 16.8317 22.971 14.3561C23.0836 13.9622 22.8585 13.5684 22.4647 13.484Z" fill="#333F4E"/>
</svg>
