<svg width="24" height="24" viewBox="0 0 24 24" fill="none" xmlns="http://www.w3.org/2000/svg">
<path d="M22.6334 6.44445C21.9294 4.05741 19.9384 2.06638 17.5514 1.36236C15.7363 0.834354 14.4823 0.878355 13.6133 1.52737C12.5683 2.30838 12.4473 3.7164 12.4473 4.71742V7.45647C12.4473 10.1625 13.6793 11.5375 16.0993 11.5375H19.2564C20.2464 11.5375 21.6654 11.4165 22.4464 10.3715C23.1174 9.5135 23.1724 8.25948 22.6334 6.44445Z" fill="#333F4E"/>
<path d="M19.5985 13.4958C19.3125 13.1658 18.8945 12.9788 18.4655 12.9788H14.5274C12.5914 12.9788 11.0184 11.4058 11.0184 9.46977V5.5317C11.0184 5.10269 10.8314 4.68469 10.5014 4.39868C10.1824 4.11268 9.74235 3.98068 9.32434 4.03568C6.7393 4.36568 4.36326 5.78471 2.81223 7.91874C1.25021 10.0638 0.678197 12.6818 1.17321 15.2999C1.88822 19.0839 4.91327 22.109 8.70833 22.824C9.31334 22.945 9.91835 23 10.5234 23C12.5144 23 14.4394 22.384 16.0785 21.185C18.2125 19.6339 19.6315 17.2579 19.9615 14.6729C20.0165 14.2438 19.8845 13.8148 19.5985 13.4958Z" fill="#333F4E"/>
</svg>
