<svg width="24" height="24" viewBox="0 0 24 24" fill="none" xmlns="http://www.w3.org/2000/svg">
<path d="M11.0834 23.0006C12.7436 23.0006 14.1324 21.8171 14.4513 20.2506H7.71559C8.03468 21.8171 9.42343 23.0006 11.0834 23.0006ZM17.5111 11.9997C17.5074 11.9997 17.5037 12.0006 17.5 12.0006C13.9627 12.0006 11.0834 9.1222 11.0834 5.58398C11.0834 4.6113 11.3072 3.69186 11.6967 2.86505C11.495 2.84589 11.2905 2.83398 11.0834 2.83398C7.53968 2.83398 4.66683 5.70666 4.66683 9.25059V11.8062C4.66683 13.6203 3.87208 15.3327 2.47774 16.5115C2.01299 16.9085 1.80674 17.5409 1.97355 18.1579C2.1679 18.8756 2.8774 19.334 3.62183 19.334H18.5405C19.3215 19.334 20.0576 18.8279 20.2161 18.0625C20.339 17.4704 20.1281 16.8791 19.6689 16.4932C18.336 15.3758 17.5652 13.734 17.5111 11.9997Z" fill="#333F4E"/>
<path d="M22.0829 5.58339C22.0829 8.11468 20.0309 10.1666 17.4995 10.1666C14.9682 10.1666 12.9163 8.11468 12.9163 5.58339C12.9163 3.0521 14.9682 1 17.4995 1C20.0309 1 22.0829 3.0521 22.0829 5.58339Z" fill="#333F4E"/>
</svg>
