<svg width="24" height="24" viewBox="0 0 24 24" fill="none" xmlns="http://www.w3.org/2000/svg">
<path d="M18.8716 3.96885C18.9996 4.17006 18.7803 4.40446 18.5478 4.35161C18.093 4.21613 17.5897 4.14839 17.0768 4.14839H13.8911C13.7338 4.14839 13.5858 4.07444 13.4913 3.94876L12.3833 2.47419C12.247 2.28107 12.3758 2 12.6122 2H15.2768C16.7875 2 18.1182 2.78458 18.8716 3.96885Z" fill="#333F4E"/>
<path d="M19.5548 6.39355C19.1387 6.09355 18.6645 5.87097 18.1516 5.74516C17.8032 5.64839 17.4452 5.6 17.0774 5.6H13.4774C12.9161 5.6 12.8774 5.55161 12.5774 5.15484L11.2226 3.35484C10.5935 2.5129 10.1 2 8.52258 2H6.27742C3.91613 2 2 3.91613 2 6.27742V17.0774C2 19.4387 3.91613 21.3548 6.27742 21.3548H14.0998C13.3914 20.4712 12.9677 19.3496 12.9677 18.129C12.9677 15.2785 15.2785 12.9677 18.129 12.9677C19.3496 12.9677 20.4712 13.3914 21.3548 14.0998V9.87742C21.3548 8.43548 20.6484 7.16774 19.5548 6.39355Z" fill="#333F4E"/>
<path d="M18.1288 14.2578C15.9959 14.2578 14.2578 15.9959 14.2578 18.1288C14.2578 20.2617 15.9959 21.9997 18.1288 21.9997C20.2617 21.9997 21.9997 20.2617 21.9997 18.1288C21.9997 15.9959 20.2617 14.2578 18.1288 14.2578ZM19.8127 19.5107C19.7585 19.6036 19.6617 19.6539 19.561 19.6539C19.5107 19.6539 19.4604 19.6423 19.4139 19.6114L18.2139 18.8952C17.9159 18.7172 17.6952 18.3262 17.6952 17.9817V16.3946C17.6952 16.2359 17.8268 16.1043 17.9856 16.1043C18.1443 16.1043 18.2759 16.2359 18.2759 16.3946V17.9817C18.2759 18.121 18.392 18.3262 18.512 18.3959L19.712 19.112C19.8514 19.1933 19.8978 19.3714 19.8127 19.5107Z" fill="#333F4E"/>
</svg>
