<svg width="24" height="24" viewBox="0 0 24 24" fill="none" xmlns="http://www.w3.org/2000/svg">
<g clip-path="url(#clip0_405_19259)">
<path d="M12 8.5C14.2091 8.5 16 6.70914 16 4.5C16 2.29086 14.2091 0.5 12 0.5C9.79086 0.5 8 2.29086 8 4.5C8 6.70914 9.79086 8.5 12 8.5Z" fill="#333F4E"/>
<path d="M4.21094 22C6.42008 22 8.21094 20.2091 8.21094 18C8.21094 15.7909 6.42008 14 4.21094 14C2.0018 14 0.210938 15.7909 0.210938 18C0.210938 20.2091 2.0018 22 4.21094 22Z" fill="#333F4E"/>
<path d="M2.94565 13.4938C2.98252 13.4978 3.01957 13.4998 3.05665 13.4998C3.30266 13.4996 3.53995 13.4087 3.72315 13.2445C3.90635 13.0803 4.02259 12.8544 4.04965 12.6098C4.16273 11.5725 4.47908 10.5676 4.98061 9.65255C5.48215 8.7375 6.15905 7.93022 6.97265 7.27684C7.17123 7.10766 7.29583 6.86758 7.31988 6.60782C7.34393 6.34806 7.26553 6.08919 7.10139 5.88643C6.93725 5.68367 6.70037 5.55308 6.4413 5.52252C6.18223 5.49195 5.92147 5.56384 5.71465 5.72284C4.6976 6.53971 3.85144 7.54893 3.22448 8.69287C2.59752 9.8368 2.20205 11.093 2.06065 12.3898C2.03174 12.6536 2.10872 12.918 2.27466 13.125C2.44061 13.332 2.68195 13.4647 2.94565 13.4938ZM14.6677 21.0448C12.9409 21.6483 11.0604 21.6483 9.33365 21.0448C9.08342 20.9565 8.80835 20.9712 8.56896 21.0857C8.32957 21.2002 8.14547 21.4051 8.05715 21.6553C7.96883 21.9056 7.98354 22.1806 8.09803 22.42C8.21252 22.6594 8.41742 22.8435 8.66765 22.9318C10.825 23.6897 13.1763 23.6897 15.3337 22.9318C15.5839 22.8435 15.7888 22.6594 15.9033 22.42C16.0178 22.1806 16.0325 21.9056 15.9441 21.6553C15.8558 21.4051 15.6717 21.2002 15.4323 21.0857C15.1929 20.9712 14.9179 20.9565 14.6677 21.0448ZM19.9517 12.6098C19.9787 12.8544 20.095 13.0803 20.2782 13.2445C20.4613 13.4087 20.6986 13.4996 20.9447 13.4998C20.9817 13.4998 21.0188 13.4978 21.0557 13.4938C21.1863 13.4795 21.3128 13.4396 21.428 13.3764C21.5432 13.3131 21.6448 13.2278 21.727 13.1253C21.8092 13.0227 21.8703 12.905 21.907 12.7788C21.9437 12.6526 21.9551 12.5204 21.9407 12.3898C21.6692 9.94446 20.5039 7.68556 18.6686 6.04684C18.4706 5.87283 18.2119 5.78405 17.9488 5.79981C17.6856 5.81557 17.4394 5.93459 17.2635 6.13099C17.0877 6.32739 16.9965 6.58527 17.0098 6.84855C17.0232 7.11182 17.1399 7.35919 17.3347 7.53684C18.8029 8.84715 19.7349 10.6539 19.9517 12.6098Z" fill="#333F4E"/>
<path d="M19.791 22C22.0002 22 23.791 20.2091 23.791 18C23.791 15.7909 22.0002 14 19.791 14C17.5819 14 15.791 15.7909 15.791 18C15.791 20.2091 17.5819 22 19.791 22Z" fill="#333F4E"/>
</g>
<defs>
<clipPath id="clip0_405_19259">
<rect width="24" height="24" fill="white"/>
</clipPath>
</defs>
</svg>
