<svg width="24" height="24" viewBox="0 0 24 24" fill="none" xmlns="http://www.w3.org/2000/svg">
<g clip-path="url(#clip0_514_9969)">
<path d="M12.0001 5.98884C8.68545 5.98884 5.9889 8.68592 5.9889 12.0005C5.9889 15.3151 8.68545 18.0122 12.0001 18.0122C15.3141 18.0122 18.0112 15.3157 18.0112 12.0005C18.0112 8.68539 15.3141 5.98884 12.0001 5.98884ZM12.0001 4.22179C11.6891 4.22179 11.3908 4.09829 11.1709 3.87844C10.9509 3.6586 10.8273 3.3604 10.8272 3.04942V1.1729C10.8272 0.861825 10.9507 0.563494 11.1707 0.343533C11.3907 0.123573 11.689 0 12.0001 0C12.3111 0 12.6095 0.123573 12.8294 0.343533C13.0494 0.563494 13.173 0.861825 13.173 1.1729V3.04942C13.1728 3.3604 13.0492 3.6586 12.8292 3.87844C12.6093 4.09829 12.311 4.22179 12.0001 4.22179ZM12.0001 19.7777C11.846 19.7777 11.6935 19.808 11.5512 19.867C11.4089 19.9259 11.2796 20.0123 11.1707 20.1212C11.0618 20.2301 10.9754 20.3594 10.9164 20.5017C10.8575 20.644 10.8272 20.7966 10.8272 20.9506V22.8266C10.8272 23.1376 10.9507 23.436 11.1707 23.6559C11.3907 23.8759 11.689 23.9995 12.0001 23.9995C12.3111 23.9995 12.6095 23.8759 12.8294 23.6559C13.0494 23.436 13.173 23.1376 13.173 22.8266V20.9506C13.1728 20.6395 13.0492 20.3413 12.8293 20.1214C12.6093 19.9014 12.3111 19.7778 12.0001 19.7777ZM17.4994 6.50009C17.2796 6.28006 17.1562 5.98178 17.1562 5.67077C17.1562 5.35976 17.2796 5.06148 17.4994 4.84145L18.8265 3.51444C18.9349 3.40366 19.0643 3.3155 19.2071 3.25504C19.3499 3.19459 19.5033 3.16304 19.6583 3.16224C19.8134 3.16143 19.967 3.19137 20.1104 3.25034C20.2538 3.3093 20.3841 3.39611 20.4938 3.50575C20.6034 3.61539 20.6902 3.74569 20.7492 3.88909C20.8082 4.0325 20.8381 4.18617 20.8373 4.34123C20.8365 4.49628 20.8049 4.64963 20.7445 4.79242C20.684 4.9352 20.5959 5.06458 20.4851 5.17307L19.1581 6.50009C18.9381 6.72002 18.6398 6.84358 18.3288 6.84358C18.0177 6.84358 17.7194 6.72002 17.4994 6.50009ZM6.50015 17.5004C6.39131 17.3914 6.26204 17.3049 6.11974 17.2459C5.97743 17.1869 5.82489 17.1565 5.67083 17.1565C5.51678 17.1565 5.36423 17.1869 5.22193 17.2459C5.07963 17.3049 4.95036 17.3914 4.84152 17.5004L3.5145 18.8269C3.29832 19.0477 3.17797 19.3448 3.17958 19.6537C3.18119 19.9627 3.30463 20.2585 3.52309 20.477C3.74156 20.6954 4.0374 20.8189 4.34635 20.8205C4.6553 20.8221 4.95241 20.7017 5.17314 20.4856L6.50015 19.158C6.60908 19.0492 6.6955 18.92 6.75446 18.7778C6.81342 18.6356 6.84377 18.4832 6.84377 18.3292C6.84377 18.1753 6.81342 18.0228 6.75446 17.8806C6.6955 17.7384 6.60908 17.6092 6.50015 17.5004ZM19.7777 12C19.7777 11.3522 20.3028 10.8271 20.9506 10.8271H22.8272C22.9833 10.8238 23.1384 10.8517 23.2836 10.9091C23.4288 10.9665 23.5611 11.0524 23.6726 11.1616C23.7842 11.2708 23.8728 11.4012 23.9333 11.5451C23.9939 11.689 24.025 11.8436 24.025 11.9997C24.025 12.1559 23.9939 12.3104 23.9333 12.4543C23.8728 12.5983 23.7842 12.7287 23.6726 12.8379C23.5611 12.9471 23.4288 13.0329 23.2836 13.0904C23.1384 13.1478 22.9833 13.1757 22.8272 13.1724H20.9506C20.7966 13.1724 20.6441 13.1422 20.5018 13.0833C20.3595 13.0244 20.2302 12.938 20.1213 12.8292C20.0124 12.7203 19.926 12.591 19.867 12.4488C19.8081 12.3065 19.7777 12.154 19.7777 12ZM4.22185 12C4.22185 11.846 4.19151 11.6935 4.13257 11.5512C4.07363 11.4089 3.98723 11.2796 3.87832 11.1706C3.76941 11.0617 3.64011 10.9753 3.4978 10.9164C3.3555 10.8574 3.20298 10.8271 3.04896 10.8271H1.17296C1.01687 10.8238 0.861681 10.8517 0.716502 10.9091C0.571323 10.9665 0.439073 11.0524 0.327505 11.1616C0.215937 11.2708 0.127297 11.4012 0.066783 11.5451C0.00626867 11.689 -0.0249023 11.8436 -0.0249023 11.9997C-0.0249023 12.1559 0.00626867 12.3104 0.066783 12.4543C0.127297 12.5983 0.215937 12.7287 0.327505 12.8379C0.439073 12.9471 0.571323 13.0329 0.716502 13.0904C0.861681 13.1478 1.01687 13.1757 1.17296 13.1724H3.04949C3.36042 13.1724 3.65861 13.0488 3.87847 12.829C4.09834 12.6091 4.22185 12.3109 4.22185 12ZM17.4994 17.5004C17.7195 17.2806 18.0178 17.1572 18.3288 17.1572C18.6398 17.1572 18.9381 17.2806 19.1581 17.5004L20.4851 18.8275C20.705 19.0474 20.8285 19.3457 20.8284 19.6567C20.8284 19.9677 20.7048 20.266 20.4848 20.4858C20.3759 20.5947 20.2466 20.6811 20.1044 20.74C19.9621 20.7989 19.8096 20.8292 19.6556 20.8292C19.3446 20.8291 19.0463 20.7055 18.8265 20.4856L17.4994 19.1585C17.3905 19.0497 17.3041 18.9205 17.2451 18.7782C17.1861 18.636 17.1558 18.4835 17.1558 18.3295C17.1558 18.1755 17.1861 18.023 17.2451 17.8808C17.3041 17.7385 17.3905 17.6093 17.4994 17.5004ZM6.50015 6.50009C6.72008 6.28013 6.84364 5.98182 6.84364 5.67077C6.84364 5.35972 6.72008 5.06141 6.50015 4.84145L5.17314 3.51497C4.95174 3.30249 4.65588 3.18524 4.34903 3.18836C4.04218 3.19149 3.74878 3.31475 3.53176 3.5317C3.31474 3.74865 3.19139 4.04202 3.18816 4.34887C3.18493 4.65571 3.30209 4.95161 3.5145 5.17307L4.84152 6.50009C4.95036 6.60912 5.07963 6.69561 5.22193 6.75463C5.36423 6.81364 5.51678 6.84402 5.67083 6.84402C5.82489 6.84402 5.97743 6.81364 6.11974 6.75463C6.26204 6.69561 6.39131 6.60912 6.50015 6.50009Z" fill="#333F4E"/>
</g>
<defs>
<clipPath id="clip0_514_9969">
<rect width="24" height="24" fill="white"/>
</clipPath>
</defs>
</svg>
