<svg width="18" height="20" viewBox="0 0 18 20" fill="none" xmlns="http://www.w3.org/2000/svg">
<path d="M17.8901 3.18007V14.4801C17.8901 16.4601 16.2801 18.0701 14.3001 18.0701C12.3301 18.0701 10.7101 16.4601 10.7101 14.4801C10.7101 12.5101 12.3301 10.9001 14.3001 10.9001C15.1401 10.9001 15.8901 11.1901 16.5001 11.6701V5.72007L7.29011 8.34007V16.4101C7.29011 18.3901 5.67011 20.0001 3.70011 20.0001C1.72011 20.0001 0.110107 18.3901 0.110107 16.4101C0.110107 14.4401 1.72011 12.8301 3.70011 12.8301C4.53011 12.8301 5.28011 13.1201 5.89011 13.5901V4.75007C5.89011 3.28007 6.78011 2.14007 8.19011 1.76007L13.9701 0.18007C15.1401 -0.13993 16.1301 -0.0299306 16.8301 0.510069C17.5401 1.04007 17.8901 1.94007 17.8901 3.18007Z" fill="#3DD9B3"/>
</svg>
