<svg width="18" height="22" viewBox="0 0 18 22" fill="none" xmlns="http://www.w3.org/2000/svg">
<path d="M17.0025 4.44505L12.8325 0.695053C12.695 0.57003 12.5159 0.500538 12.33 0.500053H3.165C2.54735 0.481764 1.9474 0.707738 1.4953 1.12895C1.04319 1.55017 0.775394 2.13266 0.75 2.75005V19.2501C0.775394 19.8674 1.04319 20.4499 1.4953 20.8712C1.9474 21.2924 2.54735 21.5183 3.165 21.5001H14.835C15.4526 21.5183 16.0526 21.2924 16.5047 20.8712C16.9568 20.4499 17.2246 19.8674 17.25 19.2501V5.00005C17.2498 4.8954 17.2276 4.79195 17.185 4.69636C17.1424 4.60078 17.0802 4.51517 17.0025 4.44505ZM8.8725 7.25005H9.1275C9.69602 7.24952 10.2519 7.41771 10.7248 7.7333C11.1976 8.0489 11.5662 8.49772 11.7839 9.02293C12.0015 9.54814 12.0584 10.1261 11.9473 10.6837C11.8363 11.2412 11.5623 11.7533 11.16 12.1551L10.155 13.1601C10.0257 13.2856 9.92311 13.4361 9.85351 13.6024C9.7839 13.7686 9.74869 13.9473 9.75 14.1276C9.75 14.3265 9.67098 14.5172 9.53033 14.6579C9.38968 14.7985 9.19891 14.8776 9 14.8776C8.80109 14.8776 8.61032 14.7985 8.46967 14.6579C8.32902 14.5172 8.25 14.3265 8.25 14.1276C8.25011 13.3656 8.55216 12.6348 9.09 12.0951L10.095 11.0901C10.2243 10.9645 10.3269 10.814 10.3965 10.6477C10.4661 10.4815 10.5013 10.3028 10.5 10.1226C10.5 9.75854 10.3554 9.40944 10.098 9.15205C9.84061 8.89466 9.49151 8.75005 9.1275 8.75005H8.8725C8.50849 8.75005 8.15939 8.89466 7.902 9.15205C7.6446 9.40944 7.5 9.75854 7.5 10.1226C7.5 10.3215 7.42098 10.5122 7.28033 10.6529C7.13968 10.7935 6.94891 10.8726 6.75 10.8726C6.55109 10.8726 6.36032 10.7935 6.21967 10.6529C6.07902 10.5122 6 10.3215 6 10.1226C6.00198 9.36133 6.30525 8.63185 6.84352 8.09358C7.38179 7.55531 8.11127 7.25203 8.8725 7.25005ZM8.25 16.2501C8.24633 16.2026 8.24633 16.155 8.25 16.1076C8.25695 16.0579 8.27216 16.0097 8.295 15.9651C8.31142 15.9173 8.33412 15.8719 8.3625 15.8301C8.39019 15.7908 8.42025 15.7532 8.4525 15.7176C8.52383 15.6493 8.60794 15.5957 8.7 15.5601C8.83658 15.5026 8.98712 15.4869 9.13261 15.515C9.2781 15.543 9.41203 15.6135 9.5175 15.7176C9.54975 15.7532 9.57981 15.7908 9.6075 15.8301C9.63588 15.8719 9.65858 15.9173 9.675 15.9651C9.69784 16.0097 9.71305 16.0579 9.72 16.1076C9.73374 16.1542 9.74377 16.2018 9.75 16.2501C9.74724 16.4486 9.66955 16.6388 9.5325 16.7826L9.42 16.8726C9.37819 16.9009 9.33279 16.9236 9.285 16.9401L9.15 17.0001H9C8.90199 16.9989 8.80517 16.9785 8.715 16.9401C8.62294 16.9044 8.53883 16.8508 8.4675 16.7826C8.33045 16.6388 8.25276 16.4486 8.25 16.2501Z" fill="#6295F2"/>
<path d="M17.25 5V6.5H12.75C12.1533 6.5 11.581 6.26295 11.159 5.84099C10.7371 5.41903 10.5 4.84674 10.5 4.25V0.5H12.33C12.5159 0.500485 12.695 0.569977 12.8325 0.695L17.0025 4.445C17.0802 4.51512 17.1424 4.60073 17.185 4.69631C17.2276 4.79189 17.2498 4.89534 17.25 5Z" fill="#98B8FE"/>
<path d="M17.16 16.1002C17.16 16.0882 17.1647 16.0768 17.1732 16.0684C17.1816 16.0599 17.1931 16.0552 17.205 16.0552C17.2169 16.0552 17.2284 16.0599 17.2368 16.0684C17.2453 16.0768 17.25 16.0882 17.25 16.1002V19.2502C17.2246 19.8676 16.9568 20.4501 16.5047 20.8713C16.0526 21.2925 15.4526 21.5185 14.835 21.5002H3.165C2.54735 21.5185 1.9474 21.2925 1.4953 20.8713C1.04319 20.4501 0.775394 19.8676 0.75 19.2502V16.1152C0.75 16.1032 0.754741 16.0918 0.76318 16.0834C0.771619 16.0749 0.783065 16.0702 0.795 16.0702C0.806935 16.0702 0.818381 16.0749 0.82682 16.0834C0.835259 16.0918 0.84 16.1032 0.84 16.1152C1.00286 16.5998 1.31622 17.0198 1.73443 17.3139C2.15264 17.608 2.65384 17.7608 3.165 17.7502H14.835C15.348 17.7598 15.8506 17.6048 16.2691 17.3078C16.6875 17.0109 16.9997 16.5876 17.16 16.1002Z" fill="url(#paint0_linear_405_22256)"/>
<defs>
<linearGradient id="paint0_linear_405_22256" x1="9" y1="21.5002" x2="9" y2="16.0702" gradientUnits="userSpaceOnUse">
<stop offset="0.14" stop-color="#3758C0"/>
<stop offset="0.24" stop-color="#446BCF"/>
<stop offset="0.4" stop-color="#5582E2"/>
<stop offset="0.55" stop-color="#5F90EE"/>
<stop offset="0.68" stop-color="#6295F2"/>
</linearGradient>
</defs>
</svg>
