<svg width="16" height="20" viewBox="0 0 16 20" fill="none" xmlns="http://www.w3.org/2000/svg">
<path d="M15.1199 7.12011C14.7299 7.12011 14.4199 7.43011 14.4199 7.82011V9.40011C14.4199 12.9401 11.5399 15.8201 7.99993 15.8201C4.45993 15.8201 1.57993 12.9401 1.57993 9.40011V7.81011C1.57993 7.42011 1.26993 7.11011 0.879932 7.11011C0.489932 7.11011 0.179932 7.42011 0.179932 7.81011V9.39011C0.179932 13.4601 3.30993 16.8101 7.29993 17.1701V19.3001C7.29993 19.6901 7.60993 20.0001 7.99993 20.0001C8.38993 20.0001 8.69993 19.6901 8.69993 19.3001V17.1701C12.6799 16.8201 15.8199 13.4601 15.8199 9.39011V7.81011C15.8099 7.43011 15.4999 7.12011 15.1199 7.12011Z" fill="#56B8FF"/>
<path d="M7.99983 0C5.55983 0 3.57983 1.98 3.57983 4.42V9.54C3.57983 11.98 5.55983 13.96 7.99983 13.96C10.4398 13.96 12.4198 11.98 12.4198 9.54V4.42C12.4198 1.98 10.4398 0 7.99983 0ZM9.30983 6.95C9.23983 7.21 9.00983 7.38 8.74983 7.38C8.69983 7.38 8.64983 7.37 8.59983 7.36C8.20983 7.25 7.79983 7.25 7.40983 7.36C7.08983 7.45 6.77983 7.26 6.69983 6.95C6.60983 6.64 6.79983 6.32 7.10983 6.24C7.69983 6.08 8.31983 6.08 8.90983 6.24C9.20983 6.32 9.38983 6.64 9.30983 6.95ZM9.83983 5.01C9.74983 5.25 9.52983 5.39 9.28983 5.39C9.21983 5.39 9.15983 5.38 9.08983 5.36C8.38983 5.1 7.60983 5.1 6.90983 5.36C6.60983 5.47 6.26983 5.31 6.15983 5.01C6.04983 4.71 6.20983 4.37 6.50983 4.27C7.46983 3.92 8.52983 3.92 9.48983 4.27C9.78983 4.38 9.94983 4.71 9.83983 5.01Z" fill="#56B8FF"/>
</svg>
